<svg id="Capa_1" enable-background="new 0 0 512 512" height="512" viewBox="0 0 512 512" width="512" xmlns="http://www.w3.org/2000/svg" xmlns:xlink="http://www.w3.org/1999/xlink"><linearGradient id="SVGID_1_" gradientUnits="userSpaceOnUse" x1="256" x2="256" y1="512" y2="0"><stop offset="0" stop-color="#addcff"/><stop offset=".5028" stop-color="#eaf6ff"/><stop offset="1" stop-color="#eaf6ff"/></linearGradient><linearGradient id="SVGID_2_" gradientUnits="userSpaceOnUse" x1="256" x2="256" y1="407" y2="105"><stop offset="0" stop-color="#00c0ff"/><stop offset="1" stop-color="#5558ff"/></linearGradient><g><g><circle cx="256" cy="256" fill="url(#SVGID_1_)" r="256"/></g><g><g><path d="m264.867 300.413h-17.733v17.764h17.733c4.884 0 8.867-3.981 8.867-8.882-.001-4.9-3.984-8.882-8.867-8.882zm0-35.529h-17.733v17.764h17.733c4.884 0 8.867-3.981 8.867-8.882s-3.984-8.882-8.867-8.882zm-94.434-126.493 23.182 19.907h124.77l23.182-19.907c2.113-1.804 3.256-4.502 3.083-7.278s-1.628-5.309-3.931-6.853l-26.6-17.764c-2.979-1.995-6.858-1.995-9.836 0l-21.683 14.477-21.682-14.477c-2.979-1.995-6.858-1.995-9.836 0l-21.682 14.477-21.682-14.477c-2.979-1.995-6.858-1.995-9.836 0l-26.6 17.764c-2.303 1.544-3.758 4.077-3.931 6.853-.174 2.776.969 5.474 3.082 7.278zm200.764 216.816c-1.61-95.378-34.537-140.402-61.361-161.381h17.097c4.901 0 8.867-3.973 8.867-8.882s-3.966-8.882-8.867-8.882c-1.896 0-143.743 0-141.867 0-4.901 0-8.867 3.973-8.867 8.882 0 4.91 3.966 8.882 8.867 8.882h17.097c-26.824 20.978-59.75 66.003-61.361 161.381-10.355 3.652-17.802 13.54-17.802 25.146 0 14.694 11.932 26.647 26.6 26.647h212.8c14.668 0 26.6-11.953 26.6-26.647 0-11.606-7.447-21.494-17.803-25.146zm-79.73-45.911c0 14.694-11.932 26.647-26.6 26.647v8.882c0 4.91-3.966 8.882-8.867 8.882s-8.867-3.973-8.867-8.882v-8.882h-17.733c-4.901 0-8.867-3.973-8.867-8.882s3.966-8.882 8.867-8.882v-53.293c-4.901 0-8.867-3.973-8.867-8.882s3.966-8.882 8.867-8.882h17.733v-8.882c0-4.91 3.966-8.882 8.867-8.882s8.867 3.973 8.867 8.882v8.882c14.668 0 26.6 11.953 26.6 26.647 0 6.818-2.563 13.046-6.789 17.764 4.226 4.717 6.789 10.945 6.789 17.763z" fill="url(#SVGID_2_)"/></g></g></g></svg>