<svg id="_x35_0" enable-background="new 0 0 512 512" height="512" viewBox="0 0 512 512" width="512" xmlns="http://www.w3.org/2000/svg"><g><g><circle cx="256" cy="256" fill="#29a3fb" r="256"/><circle cx="256" cy="256" fill="#4fcae8" r="199.66"/><path d="m512 256c0 90.88-47.36 170.7-118.74 216.13-3.24 2.06-6.53 4.05-9.87 5.97-37.51 21.56-81.01 33.9-127.39 33.9-96.84 0-181.12-53.77-224.61-133.09h230.59c95.032 0 172.07-77.038 172.07-172.07v-22.265c0-19.195 15.561-34.755 34.755-34.755h20.195c14.77 32.34 23 68.3 23 106.18z" fill="#ebd9ea"/></g><g><ellipse cx="365.814" cy="434.776" fill="#c2aacf" rx="8.94" ry="3.729"/><path d="m401.59 394.59v.07c-.03 1.61-1.36 2.89-2.97 2.86-10.75-.21-21.7-.32-32.59-.32-71.35 0-138.38 4.49-188.75 12.64-60.43 9.78-73.67 21.32-73.67 24.94s13.24 15.15 73.67 24.93c50.37 8.15 117.4 12.64 188.75 12.64 9.16 0 18.24-.07 27.23-.22-3.24 2.06-6.53 4.05-9.87 5.97-5.74.06-11.53.09-17.36.09-148.15 0-268.26-19.43-268.26-43.41 0-11.99 30.03-22.84 78.57-30.7 48.55-7.86 115.62-12.72 189.69-12.72 11.07 0 21.99.11 32.71.32 1.59.03 2.85 1.33 2.85 2.91z" fill="#c2aacf"/><g><g><g><g><path d="m349.563 395.367 9.238 21.643 7.145 16.759c.462 1.102-1.02 1.957-1.735 1.002l-13.268-17.677-11.798-15.713z" fill="#9175a7"/><g><path d="m343.031 360.014 16.944 29.347c3.325 5.759 1.356 13.108-4.403 16.432-2.028 1.171-4.26 1.688-6.448 1.605-3.995-.148-7.828-2.29-9.977-6.013l-16.944-29.347c-3.32-5.75-1.351-13.099 4.4-16.419 2.883-1.665 6.154-2 9.13-1.21 2.969.796 5.638 2.73 7.298 5.605z" fill="#9175a7"/><path d="m351.867 375.319 8.107 14.042c3.174 5.498 1.522 12.436-3.64 15.948-.247.175-.502.334-.763.484-2.028 1.171-4.26 1.688-6.448 1.605l-8.112-14.05c-3.32-5.751-1.351-13.099 4.408-16.424 2.029-1.172 4.261-1.689 6.448-1.605z" fill="#a583bb"/><path d="m357.835 385.655 2.14 3.706c3.174 5.498 1.522 12.436-3.64 15.948-1.669-.915-3.125-2.29-4.15-4.066-2.991-5.18-1.215-11.81 3.966-14.801.545-.314 1.111-.576 1.684-.787z" fill="#c2aacf"/></g></g><g><path d="m263.699 196.741 80.909 140.138c1.618 2.802 2.705 5.758 3.29 8.765 2.282 11.628-2.895 23.935-13.736 30.194-4.04 2.332-9.218.945-11.55-3.095l-90.939-157.511z" fill="#ea792e"/><path d="m263.699 196.741 80.909 140.138c1.618 2.802 2.705 5.758 3.29 8.765-2.423 4.494-6.086 8.401-10.843 11.147-4.04 2.332-9.218.945-11.555-3.103l-83.41-144.471z" fill="#f39e22"/><path d="m315.511 311.435c-5.967 3.445-13.597 1.401-17.043-4.567l-34.728-60.151c-3.445-5.967-1.401-13.597 4.567-17.043 5.967-3.445 13.597-1.401 17.043 4.567l34.728 60.151c3.445 5.968 1.4 13.598-4.567 17.043z" fill="#f9c744"/></g></g><g><g><path d="m113.78 395.367-9.238 21.643-7.145 16.759c-.462 1.102 1.02 1.957 1.735 1.002l13.268-17.677 11.798-15.713z" fill="#334353"/><g><path d="m120.312 360.014-16.944 29.347c-3.325 5.759-1.356 13.108 4.403 16.432 2.028 1.171 4.26 1.688 6.448 1.605 3.995-.148 7.828-2.29 9.977-6.013l16.944-29.347c3.32-5.75 1.351-13.099-4.4-16.419-2.883-1.665-6.154-2-9.13-1.21-2.968.796-5.638 2.73-7.298 5.605z" fill="#9175a7"/><path d="m111.476 375.319-8.107 14.042c-3.174 5.498-1.522 12.436 3.64 15.948.247.175.502.334.763.484 2.028 1.171 4.26 1.688 6.448 1.605l8.112-14.05c3.32-5.751 1.351-13.099-4.408-16.424-2.029-1.172-4.261-1.689-6.448-1.605z" fill="#a583bb"/><path d="m105.508 385.655-2.14 3.706c-3.174 5.498-1.522 12.436 3.64 15.948 1.669-.915 3.125-2.29 4.15-4.066 2.991-5.18 1.215-11.81-3.966-14.801-.545-.314-1.111-.576-1.684-.787z" fill="#c2aacf"/></g></g><g><path d="m199.645 196.741-80.909 140.138c-1.618 2.802-2.705 5.758-3.29 8.765-2.282 11.628 2.895 23.935 13.736 30.194 4.04 2.332 9.218.945 11.55-3.095l90.939-157.511z" fill="#ea792e"/><path d="m199.645 196.741-80.909 140.138c-1.618 2.802-2.705 5.758-3.29 8.765 2.423 4.494 6.086 8.401 10.843 11.147 4.04 2.332 9.218.945 11.555-3.103l83.41-144.471z" fill="#f39e22"/><path d="m147.832 311.435c5.967 3.445 13.597 1.401 17.043-4.567l34.728-60.151c3.445-5.967 1.401-13.597-4.567-17.043-5.967-3.445-13.597-1.401-17.043 4.567l-34.728 60.151c-3.445 5.968-1.4 13.598 4.567 17.043z" fill="#f9c744"/></g></g></g><g><path d="m283.504 191.38c0 3.151-.611 6.151-1.721 8.907-3.527 8.766-12.105 14.945-22.131 14.945h-55.961c-6.593 0-12.556-2.671-16.864-6.988-4.317-4.317-6.988-10.28-6.988-16.864 0-9.49 5.53-17.682 13.544-21.528 3.122-1.496 6.612-2.332 10.308-2.332h55.961c6.593 0 12.556 2.671 16.864 6.988 4.317 4.316 6.988 10.288 6.988 16.872z" fill="#c2aacf"/><path d="m283.504 191.38c0 3.151-.611 6.151-1.721 8.907-3.123 1.496-6.621 2.332-10.308 2.332h-55.961c-6.584 0-12.547-2.671-16.864-6.988s-6.988-10.28-6.988-16.864c0-3.151.611-6.16 1.721-8.916 3.122-1.496 6.612-2.332 10.308-2.332h55.961c6.593 0 12.556 2.671 16.864 6.988 4.317 4.317 6.988 10.289 6.988 16.873z" fill="#ebd9ea"/><path d="m257.445 189.929h-33.932c-6.188 0-11.205-5.017-11.205-11.205 0-6.188 5.017-11.205 11.205-11.205h33.932c6.188 0 11.205 5.017 11.205 11.205 0 6.189-5.016 11.205-11.205 11.205z" fill="#fff"/><path d="m240.475 191.38c0 1.533-.395 2.972-1.082 4.232-1.495 2.728-4.392 4.571-7.722 4.571-4.862 0-8.803-3.941-8.803-8.803 0-3.631 2.182-6.743 5.314-8.088 1.072-.47 2.248-.724 3.489-.724 4.863-.001 8.804 3.94 8.804 8.812z" fill="#334353"/><path d="m240.475 191.38c0 1.533-.395 2.972-1.082 4.232-1.072.47-2.248.724-3.489.724-4.862 0-8.803-3.941-8.803-8.803 0-1.542.395-2.981 1.082-4.242 1.072-.47 2.248-.724 3.489-.724 4.862 0 8.803 3.941 8.803 8.813z" fill="#3f5d77"/></g><g><path d="m255.711 131.751c0 9.669-2.577 18.453-6.791 24.886-4.355 6.715-10.478 10.882-17.249 10.882-13.271 0-24.04-16.008-24.04-35.768 0-17.56 8.512-32.156 19.723-35.185 1.401-.376 2.84-.574 4.317-.574 13.271 0 24.04 16.008 24.04 35.759z" fill="#ea792e"/><path d="m255.711 131.751c0 9.669-2.577 18.453-6.791 24.886-1.401.376-2.84.574-4.308.574-13.271 0-24.03-16.008-24.03-35.759 0-9.678 2.577-18.453 6.772-24.886 1.401-.376 2.84-.574 4.317-.574 13.271 0 24.04 16.008 24.04 35.759z" fill="#f39e22"/><circle cx="239.247" cy="119.938" fill="#f9c744" r="10.991"/></g></g></g></g></svg>