<svg id="_x35_0" enable-background="new 0 0 512 512" height="512" viewBox="0 0 512 512" width="512" xmlns="http://www.w3.org/2000/svg"><g><g><circle cx="256" cy="256" fill="#fa4654" r="256"/><circle cx="256" cy="256" fill="#fb626e" r="204.603"/></g><g><g><path d="m394 159.5v193c0 3.61-.89 7.01-2.47 9.99-3.59 6.82-10.74 11.46-18.98 11.46h-280.7c-8.24 0-15.39-4.64-18.98-11.46-1.58-2.98-2.47-6.38-2.47-9.99v-193c0-3.86 1.02-7.47 2.8-10.6 3.69-6.48 10.66-10.85 18.65-10.85h280.7c7.99 0 14.96 4.37 18.65 10.85 1.78 3.13 2.8 6.74 2.8 10.6z" fill="#3e4e60"/><path d="m111.94 138.05v235.9h-20.09c-8.24 0-15.39-4.64-18.98-11.46-1.58-2.98-2.47-6.38-2.47-9.99v-193c0-3.86 1.02-7.47 2.8-10.6 3.69-6.48 10.66-10.85 18.65-10.85z" fill="#2e3140"/><path d="m391.53 362.49c-3.59 6.82-10.74 11.46-18.98 11.46h-280.7c-8.24 0-15.39-4.64-18.98-11.46 3.59-6.82 10.74-11.46 18.98-11.46h280.7c8.24 0 15.39 4.64 18.98 11.46z" fill="#334353"/><path d="m111.94 351.03v22.92h-20.09c-8.24 0-15.39-4.64-18.98-11.46 3.59-6.82 10.74-11.46 18.98-11.46z" fill="#2d2c33"/><path d="m391.2 148.9c-3.69 6.49-10.66 10.86-18.65 10.86h-280.7c-7.99 0-14.96-4.37-18.65-10.86 3.69-6.48 10.66-10.85 18.65-10.85h280.7c7.99 0 14.96 4.37 18.65 10.85z" fill="#3f5d77"/><path d="m111.94 138.05v21.71h-20.09c-7.99 0-14.96-4.37-18.65-10.86 3.69-6.48 10.66-10.85 18.65-10.85z" fill="#334353"/><g><g fill="#334353"><path d="m106.27 224.41v.86c0 3.54-2.87 6.42-6.42 6.42h-17.36c-3.55 0-6.42-2.88-6.42-6.42v-.86c0-.72.12-1.42.35-2.07.85-2.53 3.25-4.35 6.07-4.35h17.36c2.82 0 5.22 1.82 6.07 4.35.23.65.35 1.35.35 2.07z"/><path d="m106.27 205.72v.86c0 3.54-2.87 6.41-6.42 6.41h-17.36c-3.55 0-6.42-2.87-6.42-6.41v-.86c0-.72.12-1.42.35-2.07.85-2.53 3.25-4.35 6.07-4.35h17.36c2.82 0 5.22 1.82 6.07 4.35.23.65.35 1.35.35 2.07z"/><path d="m106.27 187.03v.86c0 3.54-2.87 6.41-6.42 6.41h-17.36c-3.55 0-6.42-2.87-6.42-6.41v-.86c0-.72.12-1.42.35-2.07.85-2.53 3.25-4.35 6.07-4.35h17.36c2.82 0 5.22 1.82 6.07 4.35.23.65.35 1.35.35 2.07z"/></g><g fill="#334353"><path d="m106.27 325.33v.85c0 3.55-2.87 6.42-6.42 6.42h-17.36c-3.55 0-6.42-2.87-6.42-6.42v-.85c0-.72.12-1.42.35-2.07.85-2.53 3.25-4.35 6.07-4.35h17.36c2.82 0 5.22 1.82 6.07 4.35.23.65.35 1.35.35 2.07z"/><path d="m106.27 306.64v.85c0 3.55-2.87 6.42-6.42 6.42h-17.36c-3.55 0-6.42-2.87-6.42-6.42v-.85c0-.73.12-1.42.35-2.07.85-2.53 3.24-4.35 6.07-4.35h17.36c2.83 0 5.22 1.82 6.07 4.35.23.65.35 1.34.35 2.07z"/><path d="m106.27 287.94v.86c0 3.55-2.87 6.42-6.42 6.42h-17.36c-3.55 0-6.42-2.87-6.42-6.42v-.86c0-.72.12-1.42.35-2.07.85-2.52 3.25-4.34 6.07-4.34h17.36c2.82 0 5.22 1.82 6.07 4.34.23.65.35 1.35.35 2.07z"/></g><g fill="#3e4e60"><path d="m105.92 323.26c-.85 2.53-3.25 4.34-6.07 4.34h-17.36c-2.82 0-5.22-1.81-6.07-4.34.85-2.53 3.25-4.35 6.07-4.35h17.36c2.82 0 5.22 1.82 6.07 4.35z"/><path d="m105.92 304.57c-.86 2.53-3.25 4.34-6.07 4.34h-17.36c-2.82 0-5.21-1.81-6.07-4.34.85-2.53 3.24-4.35 6.07-4.35h17.36c2.83 0 5.22 1.82 6.07 4.35z"/><path d="m105.92 285.87c-.85 2.53-3.24 4.35-6.07 4.35h-17.36c-2.83 0-5.22-1.82-6.07-4.35.85-2.52 3.25-4.34 6.07-4.34h17.36c2.82 0 5.22 1.82 6.07 4.34z"/></g><g fill="#3e4e60"><path d="m105.92 222.34c-.85 2.53-3.25 4.35-6.07 4.35h-17.36c-2.82 0-5.22-1.82-6.07-4.35.85-2.53 3.25-4.35 6.07-4.35h17.36c2.82 0 5.22 1.82 6.07 4.35z"/><path d="m105.92 203.65c-.85 2.52-3.25 4.34-6.07 4.34h-17.36c-2.82 0-5.22-1.82-6.07-4.34.85-2.53 3.25-4.35 6.07-4.35h17.36c2.82 0 5.22 1.82 6.07 4.35z"/><path d="m105.92 184.96c-.85 2.52-3.25 4.34-6.07 4.34h-17.36c-2.82 0-5.22-1.82-6.07-4.34.85-2.53 3.25-4.35 6.07-4.35h17.36c2.82 0 5.22 1.82 6.07 4.35z"/></g><g><circle cx="91.17" cy="256.784" fill="#334353" r="15.098"/><circle cx="91.17" cy="256.784" fill="#3e4e60" r="9.851"/></g></g></g><g><path d="m362.384 159.758h-225.47c-5.172 0-9.366 4.193-9.366 9.366v172.544c0 5.172 4.193 9.366 9.366 9.366h225.469c5.172 0 9.366-4.193 9.366-9.366v-172.544c0-5.173-4.193-9.366-9.365-9.366z" fill="#fff"/><g><path d="m350.518 304.688v-61.826c0-6.529-5.293-11.822-11.822-11.822h-61.826c-6.529 0-11.822 5.293-11.822 11.822v61.826c0 6.529 5.293 11.822 11.822 11.822h61.826c6.529 0 11.822-5.293 11.822-11.822z" fill="#e9465e"/><circle cx="249.765" cy="237.216" fill="#f9c744" r="52.016"/><path d="m219.035 217.399c9.836-2.635 18.836 6.365 16.201 16.201l-9.464 35.321-9.464 35.321c-2.635 9.836-14.93 13.13-22.131 5.93l-25.857-25.857-25.857-25.857c-7.2-7.2-3.906-19.495 5.93-22.131l35.321-9.464z" fill="#22bce0"/><path d="m222.413 281.457 3.359-12.535 9.464-35.321c2.636-9.836-6.365-18.836-16.201-16.201l-19.171 5.137c-1.368 4.657-2.115 9.58-2.115 14.679.001 18.69 9.864 35.071 24.664 44.241z" fill="#9acdae"/><path d="m265.048 286.945c21.268-6.529 36.733-26.321 36.733-49.73 0-2.091-.138-4.149-.377-6.175h-24.534c-6.529 0-11.822 5.293-11.822 11.822z" fill="#fb8406"/><circle cx="261.503" cy="210.537" fill="#fad98f" r="15.911"/><path d="m309.566 247.706c0-5.013 4.064-9.078 9.078-9.078h15.209c5.013 0 9.078 4.064 9.078 9.078 0 5.013-4.064 9.078-9.078 9.078h-15.209c-5.014 0-9.078-4.064-9.078-9.078z" fill="#ea7589"/><path d="m151.542 244.988c3.545-3.545 9.293-3.545 12.838 0l10.755 10.755c3.545 3.545 3.545 9.293 0 12.838-3.545 3.545-9.293 3.545-12.838 0l-10.755-10.755c-3.545-3.546-3.545-9.293 0-12.838z" fill="#83d5ef"/></g></g><g><path d="m70.4 231.69h-3.319c-4.378 0-7.926 3.549-7.926 7.926v32.767c0 4.378 3.549 7.926 7.926 7.926h3.319z" fill="#334353"/><path d="m59.154 251.961h-29.593c-2.23 0-4.039 1.808-4.039 4.039 0 2.23 1.808 4.039 4.039 4.039h29.593z" fill="#2e3140"/></g></g><g><g><path d="m415.288 146.321v181.931h26.187v-181.931c0-4.568-3.703-8.271-8.271-8.271h-9.646c-4.567 0-8.27 3.703-8.27 8.271z" fill="#334353"/><path d="m433.205 138.05c-4.568 0-8.271 3.703-8.271 8.271v174.146c0 2.92.968 5.607 2.583 7.785h13.958v-181.931c0-4.568-3.703-8.271-8.27-8.271z" fill="#3e4e60"/><path d="m433.205 243.568c-4.568 0-8.271-3.703-8.271-8.271v-56.412c0-4.568 3.703-8.271 8.271-8.271 4.568 0 8.271 3.703 8.271 8.271v56.412c-.001 4.568-3.704 8.271-8.271 8.271z" fill="#3f5d77"/><path d="m449.875 269.118v32.438c0 5.821-4.715 10.536-10.536 10.536h-6.134v-53.51h6.134c5.821.001 10.536 4.715 10.536 10.536z" fill="#2e3140"/><path d="m449.875 269.118v16.285c0 5.821-4.715 10.536-10.536 10.536h-6.134v-37.357h6.134c5.821.001 10.536 4.715 10.536 10.536z" fill="#334353"/></g><path d="m431.408 360.788h-6.052c-3.677 0-6.766-2.765-7.171-6.42l-2.896-26.117h26.187l-2.896 26.117c-.406 3.655-3.495 6.42-7.172 6.42z" fill="#2e3140"/><path d="m428.382 354.689c-2.883 0-5.221 2.337-5.221 5.221v8.82c0 2.883 2.337 5.221 5.221 5.221 2.883 0 5.221-2.337 5.221-5.221v-8.82c-.001-2.884-2.338-5.221-5.221-5.221z" fill="#334353"/></g></g></svg>