<svg id="_x35_0" enable-background="new 0 0 512 512" height="512" viewBox="0 0 512 512" width="512" xmlns="http://www.w3.org/2000/svg"><g><circle cx="256" cy="256" fill="#29a3fb" r="256"/><g><path d="m255.893 463.889c-1.258 0-2.519-.012-3.782-.036-2.761-.051-4.958-2.332-4.906-5.092.051-2.761 2.313-4.961 5.092-4.906 1.225.023 2.447.023 3.67.034 8.52 0 17.107-.557 25.525-1.654 2.751-.362 5.248 1.574 5.604 4.312.357 2.738-1.573 5.248-4.312 5.604-8.846 1.153-17.867 1.738-26.816 1.738-.023 0-.049 0-.075 0zm-48.243-5.767c-.39 0-.786-.046-1.182-.142-9.945-2.41-19.783-5.583-29.238-9.429-2.558-1.041-3.788-3.958-2.748-6.515s3.958-3.789 6.515-2.748c8.998 3.66 18.36 6.679 27.826 8.973 2.684.65 4.332 3.353 3.682 6.037-.554 2.289-2.601 3.824-4.855 3.824zm118.122-6.669c-2.036 0-3.948-1.252-4.692-3.273-.955-2.591.372-5.466 2.963-6.42 9.124-3.361 18.081-7.437 26.624-12.115 2.421-1.327 5.46-.438 6.787 1.984 1.326 2.422.438 5.461-1.984 6.787-8.974 4.914-18.385 9.196-27.97 12.727-.57.211-1.154.31-1.728.31zm-186.129-23.988c-.988 0-1.986-.292-2.857-.9-8.37-5.842-16.383-12.365-23.817-19.388-2.007-1.896-2.097-5.061-.201-7.068s5.06-2.098 7.068-.201c7.078 6.687 14.706 12.896 22.674 18.458 2.264 1.581 2.819 4.697 1.238 6.962-.972 1.391-2.526 2.137-4.105 2.137zm250.218-14.217c-1.388 0-2.768-.574-3.756-1.697-1.824-2.074-1.622-5.233.451-7.057 7.311-6.43 14.2-13.454 20.479-20.875 1.783-2.108 4.937-2.373 7.047-.588 2.108 1.784 2.371 4.938.588 7.047-6.595 7.795-13.831 15.172-21.508 21.926-.95.834-2.128 1.244-3.301 1.244zm-302.516-38.96c-1.606 0-3.184-.772-4.15-2.205-5.721-8.483-10.854-17.455-15.259-26.667-1.191-2.491-.137-5.477 2.354-6.667 2.491-1.193 5.476-.137 6.667 2.354 4.193 8.771 9.082 17.313 14.528 25.389 1.544 2.29.939 5.397-1.35 6.941-.856.578-1.828.855-2.79.855zm348.531-19.722c-.778 0-1.567-.182-2.305-.566-2.449-1.275-3.401-4.294-2.127-6.744 4.49-8.627 8.37-17.667 11.532-26.866.898-2.611 3.745-4.001 6.354-3.104 2.611.897 4.001 3.742 3.104 6.354-3.322 9.668-7.399 19.167-12.118 28.233-.892 1.713-2.635 2.693-4.44 2.693zm-378.195-48.742c-2.283 0-4.345-1.574-4.872-3.894-2.264-9.969-3.796-20.2-4.556-30.407-.205-2.754 1.861-5.152 4.615-5.357 2.759-.202 5.152 1.861 5.357 4.615.723 9.714 2.181 19.449 4.335 28.936.611 2.693-1.076 5.372-3.769 5.983-.371.083-.743.124-1.11.124zm399.836-22.643c-.18 0-.362-.01-.545-.03-2.746-.298-4.729-2.765-4.432-5.51l.047-.417c.777-7.15 1.174-14.439 1.174-21.625 0-2.514-.049-5.062-.145-7.572-.105-2.76 2.046-5.082 4.805-5.188 2.783-.092 5.083 2.046 5.188 4.805.102 2.638.152 5.314.152 7.955 0 7.545-.416 15.198-1.237 22.745l-.042.376c-.279 2.562-2.446 4.461-4.965 4.461zm-402.646-51.928c-.242 0-.486-.017-.732-.053-2.732-.401-4.622-2.94-4.222-5.673 1.487-10.14 3.733-20.228 6.675-29.98.797-2.645 3.589-4.139 6.231-3.343 2.644.798 4.141 3.587 3.343 6.231-2.801 9.284-4.939 18.888-6.354 28.544-.365 2.485-2.501 4.274-4.941 4.274zm397.035-22.851c-2.209 0-4.229-1.475-4.827-3.709-2.513-9.39-5.756-18.682-9.64-27.617-1.101-2.533.061-5.478 2.593-6.579 2.534-1.103 5.477.061 6.579 2.592 4.08 9.388 7.488 19.152 10.128 29.02.714 2.667-.87 5.408-3.538 6.122-.433.116-.867.171-1.295.171zm-372.851-47.704c-.836 0-1.684-.21-2.463-.652-2.401-1.363-3.243-4.415-1.88-6.817 5.038-8.875 10.79-17.458 17.095-25.509 1.703-2.174 4.846-2.556 7.02-.854 2.174 1.703 2.556 4.845.854 7.02-6.002 7.664-11.476 15.833-16.271 24.28-.922 1.622-2.614 2.532-4.355 2.532zm340.624-19.589c-1.541 0-3.062-.71-4.041-2.051-5.741-7.857-12.114-15.354-18.943-22.284-1.938-1.967-1.915-5.132.052-7.071 1.968-1.937 5.133-1.915 7.071.052 7.172 7.277 13.865 15.151 19.895 23.403 1.629 2.229 1.143 5.357-1.087 6.987-.891.65-1.924.964-2.947.964zm-292.507-37.4c-1.448 0-2.885-.626-3.873-1.834-1.749-2.137-1.433-5.287.705-7.036 7.914-6.473 16.372-12.412 25.142-17.651 2.37-1.418 5.44-.643 6.856 1.728 1.417 2.37.643 5.44-1.728 6.856-8.35 4.989-16.404 10.644-23.939 16.808-.929.759-2.05 1.129-3.163 1.129zm238.22-13.761c-.926 0-1.862-.257-2.699-.794-8.181-5.259-16.821-9.947-25.682-13.933-2.518-1.133-3.641-4.093-2.508-6.611 1.132-2.519 4.092-3.643 6.611-2.508 9.311 4.188 18.39 9.114 26.986 14.64 2.322 1.493 2.995 4.587 1.502 6.91-.954 1.485-2.565 2.296-4.21 2.296zm-172.803-22.108c-2.103 0-4.06-1.337-4.75-3.444-.86-2.624.57-5.448 3.194-6.309 9.722-3.187 19.763-5.668 29.844-7.375 2.725-.461 5.304 1.372 5.765 4.095s-1.372 5.304-4.095 5.765c-9.593 1.625-19.147 3.986-28.399 7.019-.518.169-1.043.249-1.559.249zm103.718-5.929c-.329 0-.663-.033-.998-.101-5.969-1.21-12.084-2.16-18.175-2.822-3.595-.391-7.243-.688-10.845-.884-2.758-.15-4.871-2.507-4.721-5.264.149-2.757 2.473-4.869 5.264-4.721 3.78.206 7.61.518 11.384.928 6.394.695 12.812 1.692 19.079 2.963 2.707.549 4.456 3.188 3.907 5.894-.48 2.37-2.566 4.007-4.895 4.007z" fill="#4fcae8"/></g><g id="Laptop_3_"><g><g><path d="m291.858 166.737v130.446c0 10.704-8.674 19.378-19.37 19.378h-208.325c-10.704 0-19.378-8.674-19.378-19.378v-130.446c0-1.135.099-2.253.298-3.339 1.566-9.113 9.511-16.04 19.08-16.04h208.325c10.696 0 19.37 8.675 19.37 19.379z" fill="#3e4e60"/><path d="m198.801 316.561h-134.638c-10.704 0-19.378-8.674-19.378-19.378v-130.446c0-1.135.099-2.253.298-3.339 81.78 6.346 147.091 71.458 153.718 153.163z" fill="#334353"/><path d="m291.858 166.737v100.041c-7.821 1.806-15.965 2.767-24.333 2.767-59.295 0-107.364-48.069-107.364-107.364 0-5.029.348-9.975 1.019-14.822h111.308c10.696-.001 19.37 8.674 19.37 19.378z" fill="#3f5d77"/></g><g><g><path d="m374.873 382.708v12.444c.008.132.008.265 0 .389v.033c-.174 2.055-2.659 3.355-7.316 3.355h-215.839c-8.625 0-21.425-4.432-28.591-9.901l-65.368-49.892c-3.314-2.527-4.838-4.83-4.673-6.578v-12.676h14.838v9.354h208.316c8.625 0 21.425 4.432 28.591 9.9l58.616 44.73v-1.16h11.426z" fill="#334353"/><path d="m165.637 364.084c0 12.171-1.939 23.877-5.534 34.846h-8.384c-8.625 0-21.425-4.432-28.591-9.901l-65.368-49.892c-3.314-2.527-4.838-4.83-4.673-6.578v-12.676h14.838v9.354h92.178c3.595 10.97 5.534 22.676 5.534 34.847z" fill="#2e3140"/><path d="m374.873 382.708v12.444c.008.132.008.265 0 .389v.033c-.174 2.055-2.659 3.355-7.316 3.355h-122.75c-22.659-16.421-38.914-41.135-44.324-69.693h75.757c8.625 0 21.425 4.432 28.591 9.9l58.616 44.73v-1.16h11.426z" fill="#3e4e60"/></g><g><path d="m367.557 386.254h-215.839c-8.625 0-21.425-4.433-28.591-9.901l-65.368-49.892c-7.166-5.468-5.982-9.901 2.643-9.901h215.839c8.625 0 21.425 4.433 28.591 9.901l18.475 14.101 46.893 35.791c7.167 5.469 5.982 9.901-2.643 9.901z" fill="#3f5d77"/><path d="m370.2 376.354-46.893-35.791-18.475-14.101c-7.166-5.468-19.967-9.901-28.591-9.901h-77.423c1.98 27.034 13.562 51.391 31.342 69.693h137.397c8.625 0 9.81-4.432 2.643-9.9z" fill="#426c8c"/><path d="m165.637 364.084c0 7.589-.754 15.004-2.196 22.17h-11.723c-8.625 0-21.425-4.433-28.591-9.901l-65.368-49.892c-7.166-5.468-5.982-9.901 2.643-9.901h94.672c6.777 14.426 10.563 30.532 10.563 47.524z" fill="#3e4e60"/><path d="m323.307 340.563c-11.483 3.604-25.642 5.717-40.961 5.717-38.376 0-69.494-13.306-69.494-29.718h63.388c8.625 0 21.425 4.433 28.591 9.901z" fill="#417fa5"/></g></g><g><path d="m283.573 173.257v109.121c0 9.727-7.887 17.614-17.614 17.614h-195.276c-9.726 0-17.614-7.887-17.614-17.614v-109.121c0-3.181.845-6.164 2.328-8.741 3.024-5.302 8.741-8.873 15.286-8.873h195.276c9.727 0 17.614 7.888 17.614 17.614z" fill="#f39e22"/></g><path d="m176.05 302.476h-15.454c-3.203 0-5.799 2.596-5.799 5.799 0 3.203 2.597 5.799 5.799 5.799h15.454c3.203 0 5.799-2.596 5.799-5.799 0-3.203-2.596-5.799-5.799-5.799z" fill="#2e3140"/><g><g><g fill="#2e3140"><path d="m143.21 330.306h-21.425l-.331-.257-5.427-4.142c-.953-.721-.439-2.237.754-2.237h21.417l.331.257 4.018 3.065h.008l1.408 1.077c.945.721.431 2.237-.753 2.237z"/><path d="m127.187 344.531h-20.538l-.323-.249c-.008 0-.008-.008-.017-.008l-7.771-5.932c-.953-.721-.439-2.237.754-2.237h20.538l.331.257 6.371 4.855 1.408 1.077c.945.73.431 2.237-.753 2.237z"/><path d="m177.865 330.306h-21.417l-.331-.257-5.427-4.142c-.953-.721-.439-2.237.754-2.237h21.417l.331.257 4.018 3.065c.027.024 1.578 1.19 1.533 1.176.779.755.266 2.138-.878 2.138z"/><path d="m247.194 330.306h-21.417l-.331-.257-5.435-4.142c-.944-.721-.431-2.237.754-2.237h21.425l.331.257 4.018 3.065 1.408 1.077c.953.721.44 2.237-.753 2.237z"/><path d="m212.53 330.306h-21.417l-.331-.257-5.435-4.142c-.925-.691-.452-2.241.762-2.237h21.417l.331.257 4.018 3.065 1.408 1.077c.953.721.44 2.237-.753 2.237z"/><path d="m182.696 360.447h-21.417l-.298-.232c-.02.028-10.003-7.651-10.025-7.647-.945-.721-.431-2.237.762-2.237h21.417l.331.257 8.575 6.545h.008c.028.023 1.567 1.19 1.524 1.176.78.763.266 2.138-.877 2.138z"/><path d="m286.688 360.447h-21.417l-.249-.191c-.008 0-.008-.008-.017-.008-.657-.481-9.754-7.454-10.058-7.68-.953-.721-.439-2.237.754-2.237h21.417l.323.249c.008 0 .008.008.017.008l8.575 6.545 1.408 1.077c.954.729.44 2.237-.753 2.237z"/><path d="m217.36 360.447h-21.417l-.298-.232c-.02.027-10.003-7.651-10.025-7.647-.945-.721-.439-2.237.754-2.237h21.417l.323.249c.008 0 .008.008.017.008l8.575 6.545 1.408 1.077c.952.729.439 2.237-.754 2.237z"/><path d="m252.024 360.447h-21.417l-.298-.232c-.02.028-10.003-7.651-10.025-7.647-.944-.721-.439-2.237.754-2.237h21.417l.323.249c.008 0 .008.008.017.008l8.575 6.545 1.408 1.077c.953.729.439 2.237-.754 2.237z"/><path d="m108.545 330.306h-20.372c-.124-.116-.24-.232-.348-.348-.313-.289-.577-.623-.845-.944v-.008c-3.103-3.941 1.187-5.471 4.764-5.335h11.789l.323.249c.008 0 .008.008.017.008l4.018 3.065 1.408 1.077c.945.72.439 2.236-.754 2.236z"/><path d="m148.04 360.447h-8.111c-7.899-.273-16.278-3.235-22.751-7.879-.953-.721-.439-2.237.754-2.237h20.538l.331.257 8.583 6.545 1.408 1.077c.946.729.432 2.237-.752 2.237z"/><path d="m279.621 330.306h-19.18l-.323-.249c-.008 0-.008-.008-.017-.008l-5.427-4.142c-.945-.721-.439-2.237.754-2.237 2.915.06 9.414-.21 12.204.348 4.317.686 8.539 2.066 12.502 3.91 1.219.564.829 2.378-.513 2.378z"/><path d="m317.549 357.796c-.044.65-.436 1.205-.953 1.574 0 0-.008 0-.008.008-1.417.936-3.202 1.038-4.863 1.069h-11.789l-.249-.191c-.008 0-.008-.008-.017-.008-.657-.481-9.754-7.454-10.058-7.68-.953-.721-.439-2.237.754-2.237h20.538c2.4 1.896 6.889 4.731 6.645 7.465z"/><path d="m161.842 344.531h-21.417l-.331-.257-7.78-5.932c-.041-.033-.083-.066-.116-.099-.779-.754-.265-2.137.878-2.137h21.417l.331.257 6.363 4.855h.008c.028.023 1.568 1.19 1.524 1.176.78.762.267 2.137-.877 2.137z"/><path d="m265.835 344.531h-21.417l-.323-.249c-.008 0-.008-.008-.017-.008l-7.771-5.932c-.953-.721-.439-2.237.754-2.237h21.417l.323.249c.008 0 .008.008.017.008l6.363 4.855 1.408 1.077c.953.73.439 2.237-.754 2.237z"/><path d="m196.507 344.531h-21.417l-.331-.257-7.78-5.932c-.945-.721-.431-2.237.762-2.237h21.417l.331.257 6.363 4.855 1.408 1.077c.953.73.44 2.237-.753 2.237z"/><path d="m231.171 344.531h-21.417l-.331-.257-7.78-5.932c-.944-.721-.439-2.237.754-2.237h21.417l.323.249c.008 0 .008.008.017.008l6.363 4.855 1.408 1.077c.952.73.439 2.237-.754 2.237z"/><path d="m299.613 344.531h-20.53l-.323-.249c-.008 0-.008-.008-.017-.008l-7.771-5.932c-.953-.721-.439-2.237.754-2.237h20.538l.331.257 6.371 4.855 1.408 1.077c.945.73.432 2.237-.761 2.237z"/></g><g fill="#3e4e60"><path d="m142.547 326.992h-17.026c-.273 0-.538-.091-.754-.257l-4.018-3.065h17.448l.331.257z"/><path d="m126.532 341.217h-16.147c-.273 0-.539-.091-.762-.257l-6.363-4.855h16.57l.331.257z"/><path d="m177.211 326.992h-17.026c-.273 0-.539-.091-.754-.257l-4.018-3.065h17.448l.331.257z"/><path d="m246.539 326.992h-17.026c-.273 0-.539-.091-.754-.257l-4.018-3.065h17.448l.331.257z"/><path d="m211.875 326.992h-17.025c-.273 0-.538-.091-.754-.257l-4.018-3.065h17.448l.331.257z"/><path d="m182.041 357.133h-17.026c-.273 0-.539-.083-.754-.249l-8.583-6.553h17.456l.331.257z"/><path d="m286.034 357.133h-17.026c-.273 0-.538-.083-.762-.249l-8.575-6.553h17.448l.323.249c.008 0 .008.008.017.008z"/><path d="m216.705 357.133h-17.025c-.273 0-.538-.083-.754-.249l-8.583-6.553h17.448l.323.249c.008 0 .008.008.017.008z"/><path d="m251.369 357.133h-17.026c-.273 0-.539-.083-.754-.249l-8.583-6.553h17.448l.323.249c.008 0 .008.008.017.008z"/><path d="m107.891 326.992h-15.891c-1.35-.115-2.476-2.418-2.676-3.14 1.456-.358 12.48-.116 14.209-.182l.323.249c.008 0 .008.008.017.008z"/><path d="m147.385 357.133h-4.142c-6.48-.003-15.586-3.084-21.218-6.802h16.446l.331.257z"/><path d="m278.014 326.992h-13.836c-.273 0-.539-.091-.762-.257l-4.018-3.065c.881.016 4.44-.035 5.244.033 4.598.267 9.11 1.57 13.372 3.289z"/><path d="m317.475 356.951c-1.462.35-12.074.121-13.803.182-.273 0-.539-.083-.762-.249l-8.575-6.553h16.57c2.107 1.571 6.313 4.603 6.57 6.62z"/><path d="m161.188 341.217h-17.026c-.273 0-.538-.091-.754-.257l-6.371-4.855h17.456l.331.257z"/><path d="m265.18 341.217h-17.026c-.273 0-.539-.091-.762-.257l-6.363-4.855h17.448l.323.249c.008 0 .008.008.017.008z"/><path d="m195.852 341.217h-17.026c-.273 0-.539-.091-.754-.257l-6.371-4.855h17.456l.331.257z"/><path d="m230.516 341.217h-17.026c-.273 0-.538-.091-.754-.257l-6.371-4.855h17.448l.323.249c.008 0 .008.008.017.008z"/><path d="m298.966 341.217h-16.147c-.273 0-.539-.091-.762-.257l-6.363-4.855h16.57l.331.257z"/></g></g><g><path d="m279.878 379.635h-72.634c-2.9 0-7.208-1.491-9.619-3.339-2.424-1.831-9.147-6.988-11.64-8.881-2.411-1.839-2.013-3.331.887-3.331h72.634c2.9 0 7.208 1.491 9.619 3.331l11.649 8.881c1.942 1.387 2.478 3.34-.896 3.339z" fill="#3e4e60"/><path d="m279.878 379.635h-72.634c-2.9 0-7.208-1.491-9.619-3.339l-3.587-2.734c-.439-1.019.373-1.707 2.353-1.707h72.626c2.908 0 7.216 1.491 9.627 3.331l3.579 2.734c.447 1.019-.373 1.715-2.345 1.715z" fill="#2e3140"/></g></g><g fill="#417fa5"><path d="m251.07 155.644h-53.479c-2.288 0-4.142-1.855-4.142-4.142 0-2.288 1.855-4.142 4.142-4.142h53.479c2.288 0 4.142 1.855 4.142 4.142 0 2.288-1.854 4.142-4.142 4.142z"/><path d="m351.305 375.781h-52.356c-2.892 0-5.236 2.344-5.236 5.236 0 2.892 2.344 5.236 5.236 5.236h52.356c2.892 0 5.236-2.344 5.236-5.236.001-2.891-2.344-5.236-5.236-5.236z"/></g></g><g><g><g><path d="m268.571 188.262v79.12c0 9.72-7.88 17.61-17.61 17.61h-165.28c-9.72 0-17.61-7.89-17.61-17.61v-79.12c0-3.18.84-6.17 2.33-8.74 3.02-5.31 8.74-8.88 15.28-8.88h165.28c9.73 0 17.61 7.89 17.61 17.62z" fill="#fff"/></g><path d="m268.571 188.262h-200.5c0-3.18.84-6.17 2.33-8.74 3.02-5.31 8.74-8.88 15.28-8.88h165.28c9.73 0 17.61 7.89 17.61 17.62z" fill="#6c53a2"/></g><circle cx="247.237" cy="179.452" fill="#fa4654" r="6.851"/><circle cx="227.126" cy="179.452" fill="#15be79" r="6.851"/><g fill="#417fa5"><path d="m249.683 207.225h-162.724c-2.433 0-4.405 1.972-4.405 4.405 0 2.433 1.972 4.405 4.405 4.405h162.724c2.433 0 4.405-1.972 4.405-4.405 0-2.433-1.972-4.405-4.405-4.405z"/><path d="m249.683 226.999h-162.724c-2.433 0-4.405 1.972-4.405 4.405 0 2.433 1.972 4.405 4.405 4.405h162.724c2.433 0 4.405-1.972 4.405-4.405 0-2.433-1.972-4.405-4.405-4.405z"/><path d="m249.683 246.773h-162.724c-2.433 0-4.405 1.972-4.405 4.405 0 2.433 1.972 4.405 4.405 4.405h162.724c2.433 0 4.405-1.972 4.405-4.405 0-2.433-1.972-4.405-4.405-4.405z"/></g></g></g><g><g><path d="m388.081 136.759-80.024 138.605c-4.028 6.977-1.64 15.89 5.332 19.915l66.694 38.506c1.706.985 3.531 1.584 5.364 1.828 5.676.754 11.506-1.897 14.549-7.168l80.024-138.605c3.04-5.266 2.421-11.639-1.07-16.178-1.128-1.465-2.559-2.747-4.265-3.732l-66.695-38.506c-6.971-4.025-15.884-1.637-19.909 5.335z" fill="#3e4e60"/><path d="m469.616 178.712-84.459 146.287c-1.976 3.422-1.738 7.521.291 10.615 5.676.753 11.506-1.897 14.549-7.168l80.024-138.605c3.04-5.266 2.421-11.639-1.07-16.178-3.693-.212-7.359 1.626-9.335 5.049z" fill="#2e3140"/><g fill="#417fa5"><circle cx="346.844" cy="299.771" r="9.531"/><path d="m404.328 143.3 37.787 21.816c2.898 1.673 6.603.68 8.276-2.217 1.673-2.898.68-6.603-2.217-8.276l-37.787-21.816c-2.898-1.673-6.603-.68-8.276 2.217-1.673 2.898-.681 6.603 2.217 8.276z"/></g></g><g><g><path d="m463.162 207.006-17.136 29.68c-.552.956-.224 2.181.732 2.733l2.326 1.343c2.759 1.593 6.28.65 7.871-2.105l13.379-23.172c1.59-2.755.65-6.28-2.11-7.873l-2.326-1.343c-.956-.552-2.181-.224-2.736.737z" fill="#334353"/><path d="m463.162 207.006-10.853 18.798c-.555.961-.226 2.186.73 2.738l2.326 1.343c2.759 1.593 6.283.645 7.873-2.11l7.096-12.29c1.59-2.755.65-6.28-2.11-7.873l-2.326-1.343c-.956-.552-2.181-.224-2.736.737z" fill="#3e4e60"/></g><g><path d="m379.858 158.91-7.605 13.173c-.552.956-1.777 1.284-2.733.732l-2.326-1.343c-2.759-1.593-3.703-5.114-2.112-7.869l3.848-6.665c1.59-2.755 5.114-3.703 7.873-2.11l2.326 1.343c.955.553 1.283 1.778.729 2.739z" fill="#334353"/><path d="m379.858 158.91-4.499 7.793c-.555.961-1.78 1.289-2.736.737l-2.326-1.343c-2.759-1.593-3.7-5.118-2.11-7.873l.742-1.285c1.59-2.755 5.114-3.703 7.873-2.11l2.326 1.343c.956.552 1.284 1.777.73 2.738z" fill="#3e4e60"/></g><g><path d="m365.523 183.739-7.605 13.173c-.552.956-1.777 1.284-2.733.732l-2.326-1.343c-2.759-1.593-3.703-5.114-2.112-7.869l3.848-6.665c1.59-2.755 5.114-3.703 7.873-2.11l2.326 1.343c.955.553 1.283 1.778.729 2.739z" fill="#334353"/><path d="m365.523 183.739-4.499 7.793c-.555.961-1.78 1.289-2.736.737l-2.326-1.343c-2.759-1.593-3.7-5.118-2.11-7.873l.742-1.285c1.59-2.755 5.114-3.703 7.873-2.11l2.326 1.343c.956.552 1.284 1.777.73 2.738z" fill="#3e4e60"/></g></g><g><path d="m317.075 179.709h145.295v91.587h-145.295z" fill="#f39e22" transform="matrix(.5 -.866 .866 .5 -.43 450.261)"/></g><g><g><g><path d="m438.662 211.916-35.962 62.288c-4.418 7.652-14.208 10.282-21.868 5.859l-35.647-20.581c-7.652-4.418-10.277-14.216-5.859-21.868l35.962-62.288c1.445-2.504 3.466-4.476 5.807-5.822 4.791-2.808 10.917-3.018 16.065-.046l35.647 20.581c7.66 4.424 10.277 14.217 5.855 21.877z" fill="#fff"/></g><path d="m438.662 211.916-63.375-36.589c1.445-2.504 3.466-4.476 5.807-5.822 4.791-2.808 10.917-3.018 16.065-.046l35.647 20.581c7.661 4.423 10.278 14.216 5.856 21.876z" fill="#6c53a2"/></g><circle cx="428.317" cy="196.696" fill="#fa4654" r="5.403"/><circle cx="416.084" cy="189.633" fill="#15be79" r="5.403"/><g fill="#417fa5"><path d="m417.846 213.631-33.635-19.419c-1.915-1.106-4.364-.45-5.47 1.466-1.106 1.915-.45 4.364 1.466 5.47l33.635 19.419c1.915 1.106 4.364.45 5.47-1.466 1.105-1.916.449-4.365-1.466-5.47z"/><path d="m408.858 229.198-33.635-19.419c-1.915-1.106-4.364-.45-5.47 1.466-1.106 1.915-.45 4.364 1.466 5.47l33.635 19.419c1.915 1.106 4.364.45 5.47-1.466 1.105-1.915.449-4.364-1.466-5.47z"/><path d="m399.87 244.765-33.635-19.419c-1.915-1.106-4.364-.45-5.47 1.466-1.106 1.915-.45 4.364 1.466 5.47l33.635 19.419c1.915 1.106 4.364.45 5.47-1.466 1.105-1.915.449-4.364-1.466-5.47z"/><path d="m390.882 260.333-33.635-19.419c-1.915-1.106-4.364-.45-5.47 1.466-1.106 1.915-.45 4.364 1.466 5.47l33.635 19.419c1.915 1.106 4.364.45 5.47-1.466 1.106-1.915.449-4.365-1.466-5.47z"/></g></g></g></g></svg>