<svg id="_x35_0" enable-background="new 0 0 512 512" height="512" viewBox="0 0 512 512" width="512" xmlns="http://www.w3.org/2000/svg"><g><g><circle cx="256" cy="256" fill="#29a3fb" r="256"/><circle cx="256" cy="256" fill="#4fcae8" r="192.666"/></g><g><g id="Ruler_5_"><g><path d="m382.84 86.978 42.182 42.182c3.684 3.684 3.684 9.658 0 13.342l-282.519 282.52c-3.684 3.684-9.658 3.684-13.342 0l-42.183-42.182c-3.684-3.684-3.684-9.658 0-13.342l282.519-282.52c3.685-3.684 9.658-3.684 13.343 0z" fill="#e9465e"/><path d="m390.059 94.198-7.219-7.219c-3.684-3.684-9.658-3.684-13.342 0l-282.52 282.518c-3.684 3.684-3.684 9.658 0 13.342l7.219 7.219z" fill="#ee6781"/></g><g fill="#f0a6b3"><path d="m359.323 97.152 21.403 21.403c1.391 1.391 3.645 1.391 5.036 0 1.391-1.391 1.391-3.645 0-5.036l-21.403-21.403z"/><path d="m292.521 163.954 21.403 21.403c1.391 1.391 3.645 1.391 5.036 0 1.391-1.391 1.391-3.645 0-5.036l-21.403-21.403z"/><path d="m345.963 110.513 13.079 13.079c1.391 1.391 3.645 1.391 5.036 0 1.391-1.391 1.391-3.645 0-5.036l-13.079-13.079z"/><path d="m332.602 123.873 13.079 13.079c1.391 1.391 3.645 1.391 5.036 0 1.391-1.391 1.391-3.645 0-5.036l-13.079-13.079z"/><path d="m319.242 137.234 13.079 13.079c1.391 1.391 3.645 1.391 5.036 0 1.391-1.391 1.391-3.645 0-5.036l-13.079-13.079z"/><path d="m305.882 150.594 13.079 13.079c1.391 1.391 3.645 1.391 5.036 0 1.391-1.391 1.391-3.645 0-5.036l-13.079-13.079z"/><path d="m225.72 230.756 21.403 21.403c1.391 1.391 3.645 1.391 5.036 0 1.391-1.391 1.391-3.645 0-5.036l-21.403-21.403z"/><path d="m279.161 177.315 13.079 13.079c1.391 1.391 3.645 1.391 5.036 0 1.391-1.391 1.391-3.645 0-5.036l-13.079-13.079z"/><path d="m265.801 190.675 13.079 13.079c1.391 1.391 3.645 1.391 5.036 0 1.391-1.391 1.391-3.645 0-5.036l-13.079-13.079z"/><path d="m252.44 204.035 13.079 13.079c1.391 1.391 3.645 1.391 5.036 0 1.391-1.391 1.391-3.645 0-5.036l-13.079-13.079z"/><path d="m239.08 217.396 13.079 13.079c1.391 1.391 3.645 1.391 5.036 0 1.391-1.391 1.391-3.645 0-5.036l-13.079-13.079z"/><path d="m158.918 297.558 21.403 21.403c1.391 1.391 3.645 1.391 5.036 0 1.391-1.391 1.391-3.645 0-5.036l-21.403-21.403z"/><path d="m212.359 244.116 13.079 13.079c1.391 1.391 3.645 1.391 5.036 0 1.391-1.391 1.391-3.645 0-5.036l-13.079-13.079z"/><path d="m198.999 257.477 13.079 13.079c1.391 1.391 3.645 1.391 5.036 0 1.391-1.391 1.391-3.645 0-5.036l-13.079-13.079z"/><path d="m185.639 270.837 13.079 13.079c1.391 1.391 3.645 1.391 5.036 0 1.391-1.391 1.391-3.645 0-5.036l-13.079-13.079z"/><path d="m172.278 284.197 13.079 13.079c1.391 1.391 3.645 1.391 5.036 0 1.391-1.391 1.391-3.645 0-5.036l-13.079-13.079z"/><path d="m92.116 364.359 21.403 21.403c1.391 1.391 3.645 1.391 5.036 0 1.391-1.391 1.391-3.645 0-5.036l-21.403-21.403z"/><path d="m145.558 310.918 13.079 13.079c1.391 1.391 3.645 1.391 5.036 0 1.391-1.391 1.391-3.645 0-5.036l-13.079-13.079z"/><path d="m132.197 324.278 13.079 13.079c1.391 1.391 3.645 1.391 5.036 0 1.391-1.391 1.391-3.645 0-5.036l-13.079-13.079z"/><path d="m118.837 337.639 13.079 13.079c1.391 1.391 3.645 1.391 5.036 0 1.391-1.391 1.391-3.645 0-5.036l-13.079-13.079z"/><path d="m105.477 350.999 13.079 13.079c1.391 1.391 3.645 1.391 5.036 0 1.391-1.391 1.391-3.645 0-5.036l-13.079-13.079z"/></g></g><g id="Pencil_5_"><g><path d="m226.922 141.083h64.87v247.291h-64.87z" fill="#f39e22" transform="matrix(.707 -.707 .707 .707 -111.228 260.931)"/><path d="m175.672 200.234 148.181 148.181c3.687 3.687 5.519 8.503 5.519 13.34s-1.833 9.654-5.519 13.34l-174.861-174.861c7.363-7.363 19.307-7.374 26.68 0z" fill="#c68132"/><path d="m194.862 154.363 174.861 174.861c-7.373 7.373-19.328 7.373-26.691.011l-148.181-148.181c-7.373-7.373-7.362-19.317.011-26.691z" fill="#f9c744"/></g><g><path d="m392.477 327.717c5.86 5.86 5.871 15.375.011 21.236l-48.907 48.907c-2.93 2.93-6.777 4.39-10.613 4.39-1.939 0-3.889-.373-5.7-1.119-1.801-.735-3.474-1.833-4.923-3.282-5.871-5.871-5.871-15.375-.011-21.236l48.907-48.907c2.93-2.93 6.777-4.39 10.613-4.39 3.847-.01 7.693 1.471 10.623 4.401z" fill="#ebd9ea"/><path d="m392.477 327.717-30.879 30.879c-2.93 2.93-6.766 4.401-10.623 4.401-3.836 0-7.682-1.46-10.623-4.401l30.889-30.889c2.93-2.93 6.777-4.39 10.613-4.39 3.847-.011 7.693 1.47 10.623 4.4z" fill="#fff"/><path d="m390.144 351.297-46.563 46.563c-2.93 2.93-6.777 4.39-10.613 4.39-1.939 0-3.889-.373-5.7-1.119l46.563-46.563c2.93-2.93 6.777-4.39 10.613-4.39 1.939 0 3.867.373 5.7 1.119z" fill="#c1b7d3"/></g><g><path d="m390.964 350.476 15.716 15.716c6.968 6.968 10.101 16.302 9.398 25.402-.043.81-.128 1.598-.256 2.387-1.012 6.617-4.049 12.978-9.142 18.071-5.349 5.349-12.104 8.439-19.073 9.27-1.087.128-2.195.213-3.303.213-.171.021-.362.021-.554.021-8.3.011-16.601-3.154-22.94-9.494l-15.716-15.716z" fill="#ee6781"/><path d="m390.964 350.476 15.716 15.716c6.968 6.968 10.101 16.302 9.398 25.402-.81.064-1.63.096-2.461.096-8.29 0-16.59-3.165-22.93-9.504l-15.716-15.716z" fill="#f0a6b3"/><path d="m359.106 382.335 15.716 15.716c6.478 6.478 9.654 15.002 9.483 23.484-.171.021-.362.021-.554.021-8.3.011-16.601-3.154-22.94-9.494l-15.716-15.716z" fill="#d65171"/></g><path d="m194.857 154.369-45.87 45.87-28.673-67.032 7.522-7.522 54.32 23.249z" fill="#f5b890"/><path d="m182.156 148.934-23.218 23.218c-3.942 3.942-10.612 2.642-12.807-2.472l-18.668-43.622.373-.373z" fill="#fbd9a3"/><g><path d="m108.337 103.97 22.621 22.621c2.685 2.685 2.674 7.043-.011 9.728-1.342 1.342-3.101 2.014-4.859 2.024-1.769 0-3.527-.671-4.869-2.014l-22.621-22.621c-2.429-2.429-2.653-6.212-.714-8.897.213-.298.447-.575.714-.842 2.686-2.684 7.043-2.695 9.739.001z" fill="#2e3140"/><path d="m108.337 103.97 13.841 13.841c-.213.298-.447.575-.714.842-1.343 1.343-3.111 2.024-4.869 2.014-1.769 0-3.527-.671-4.869-2.014l-13.841-13.841c.213-.298.447-.575.714-.842 2.685-2.685 7.042-2.696 9.738 0z" fill="#334353"/></g></g></g><g><path d="m429.809 261.18h-10.57c-7.352 0-13.312-5.96-13.312-13.312v-10.57c0-3.193-2.588-5.781-5.781-5.781-3.193 0-5.781 2.588-5.781 5.781v10.57c0 7.352-5.96 13.312-13.312 13.312h-10.57c-3.193 0-5.781 2.588-5.781 5.781 0 3.193 2.588 5.781 5.781 5.781h10.57c7.352 0 13.312 5.96 13.312 13.312v10.57c0 3.193 2.588 5.781 5.781 5.781 3.193 0 5.781-2.588 5.781-5.781v-10.57c0-7.352 5.96-13.312 13.312-13.312h10.57c3.193 0 5.781-2.588 5.781-5.781 0-3.193-2.588-5.781-5.781-5.781z" fill="#fff"/><g fill="#cde6f6"><path d="m477.938 190.264h-8.125c-5.652 0-10.233-4.582-10.233-10.233v-8.125c0-2.454-1.99-4.444-4.444-4.444-2.454 0-4.444 1.99-4.444 4.444v8.125c0 5.652-4.582 10.233-10.233 10.233h-8.125c-2.454 0-4.444 1.99-4.444 4.444 0 2.454 1.99 4.444 4.444 4.444h8.125c5.652 0 10.233 4.582 10.233 10.233v8.125c0 2.454 1.99 4.444 4.444 4.444 2.454 0 4.444-1.99 4.444-4.444v-8.125c0-5.652 4.582-10.233 10.233-10.233h8.125c2.454 0 4.444-1.99 4.444-4.444 0-2.455-1.99-4.444-4.444-4.444z"/><path d="m105.274 211.302h-10.57c-7.352 0-13.312-5.96-13.312-13.312v-10.57c0-3.193-2.588-5.781-5.781-5.781-3.193 0-5.781 2.588-5.781 5.781v10.57c0 7.352-5.96 13.312-13.312 13.312h-10.57c-3.193 0-5.781 2.588-5.781 5.781 0 3.193 2.588 5.781 5.781 5.781h10.57c7.352 0 13.312 5.96 13.312 13.312v10.57c0 3.193 2.588 5.781 5.781 5.781 3.193 0 5.781-2.588 5.781-5.781v-10.57c0-7.352 5.96-13.312 13.312-13.312h10.57c3.193 0 5.781-2.588 5.781-5.781 0-3.193-2.588-5.781-5.781-5.781z"/></g></g></g></svg>